<svg xmlns="http://www.w3.org/2000/svg" viewBox="0 0 504.124 504.124"><path d="M378.092 378.092v27.569c0 11.028 8.665 19.692 19.298 19.692h31.902v-47.262h-51.2v.001zM74.831 425.354h31.902c10.634 0 19.298-8.665 19.298-19.692v-27.569h-51.2v47.261z" fill="#1e2e37"/><path d="M413.538 378.092v64.197c0 14.572 11.815 26.388 25.994 26.388h14.572c14.572 0 25.994-11.815 25.994-26.388v-72.074l-66.56 7.877zM23.631 442.289c0 14.572 11.815 26.388 25.994 26.388h14.572c14.572 0 25.994-11.815 25.994-26.388v-64.197l-66.56-7.877v72.074z" fill="#324d5b"/><path d="M250.486 35.446h1.182c133.514 0 165.809 57.108 165.809 165.415H86.646c0-108.307 32.689-165.415 163.84-165.415z" fill="#bf392b"/><path d="M250.88 55.138h1.182c117.366 0 145.723 50.412 145.723 145.723H106.338c0-95.31 28.751-145.723 144.542-145.723z" fill="#85c6dc"/><path d="M252.062 334.77c80.345 0 145.723 14.966 145.723 33.477s-65.378 33.477-145.723 33.477-145.723-14.966-145.723-33.477c-.001-18.512 65.378-33.477 145.723-33.477z" fill="#85281e"/><path d="M88.222 212.677l164.234-23.631 163.446 23.631c48.837 0 88.222 39.778 88.222 89.403v19.298c0 14.178-6.302 25.6-25.206 25.6H25.206C6.695 346.585 0 335.163 0 320.985v-19.298c0-49.232 39.385-89.01 88.222-89.01z" fill="#bf392b"/><path d="M20.086 342.646h463.557c6.695 0 12.209 5.12 12.209 11.815 0 12.997-11.028 23.631-24.812 23.631H32.689c-13.785 0-24.812-10.634-24.812-23.631 0-6.695 5.514-11.815 12.209-11.815z" fill="#e4e7e7"/><path d="M422.597 200.468s-45.686 18.117-69.711 98.068c0 0-13.391 44.111-44.111 44.111H195.348c-30.72 0-44.111-44.111-44.111-44.111-24.025-79.951-69.317-97.28-69.317-97.28-15.754-6.302 0-15.754 0-15.754 63.803-36.234 170.142-31.902 170.142-31.902s105.945-4.726 170.535 31.902c0 0 14.572 8.27 0 14.966z" fill="#e2574c"/><path d="M168.566 293.022c1.969 6.302 12.209 29.932 25.206 29.932h34.658V173.292c-59.865 0-98.855 11.028-122.092 21.268 18.117 13.785 45.293 42.535 62.228 98.462zm107.126-119.73v149.662h31.114c13.391 0 23.237-23.631 25.206-29.932 16.542-55.138 43.323-84.283 61.44-98.462-22.449-10.24-60.258-20.874-117.76-21.268z" fill="#bf392b"/><path d="M244.185 153.6h15.754v189.046h-15.754V153.6z" fill="#e87970"/><path d="M70.892 248.123c-19.692 0-35.446 15.754-35.446 35.446s15.754 35.446 35.446 35.446 35.446-15.754 35.446-35.446c0-19.691-15.753-35.446-35.446-35.446zm362.339 0c-19.692 0-35.446 15.754-35.446 35.446s15.754 35.446 35.446 35.446 35.446-15.754 35.446-35.446c0-19.691-15.754-35.446-35.446-35.446z" fill="#e0e3e4"/><path d="M70.892 271.754c-6.695 0-11.815 5.12-11.815 11.815s5.12 11.815 11.815 11.815 11.815-5.12 11.815-11.815-5.513-11.815-11.815-11.815zm362.339 0c-6.695 0-11.815 5.12-11.815 11.815s5.12 11.815 11.815 11.815 11.815-5.12 11.815-11.815-5.12-11.815-11.815-11.815z" fill="#c0c8cb"/><path d="M426.535 192.985h-7.089c-7.877 0-14.178 5.908-14.178 13.785v6.695c0 3.938 7.877 6.695 17.329 6.695 9.846 0 17.329-3.151 17.329-6.695v-6.695c.788-7.484-5.514-13.785-13.391-13.785zm-342.646 0H76.8c-7.877 0-14.178 5.908-14.178 13.785v6.695c0 3.938 7.877 6.695 17.329 6.695s17.329-3.151 17.329-6.695v-6.695c.788-7.484-5.514-13.785-13.391-13.785z" fill="#f4b459"/><path d="M117.366 122.486c19.692-9.846 76.8-35.052 133.908-35.052 57.502 0 115.397 25.206 135.089 35.052-16.542-44.505-55.138-67.348-134.302-67.348h-1.182c-77.981 0-116.577 22.844-133.513 67.348z" fill="#92d2e8"/><path d="M433.231 256c15.36 0 27.569 12.209 27.569 27.569s-12.209 27.569-27.569 27.569-27.569-12.209-27.569-27.569c0-15.359 12.209-27.569 27.569-27.569m-362.339 0c15.36 0 27.569 12.209 27.569 27.569s-12.209 27.569-27.569 27.569-27.569-12.209-27.569-27.569C43.323 268.21 55.532 256 70.892 256m362.339-7.877c-19.692 0-35.446 15.754-35.446 35.446s15.754 35.446 35.446 35.446 35.446-15.754 35.446-35.446c0-19.691-15.754-35.446-35.446-35.446zm-362.339 0c-19.692 0-35.446 15.754-35.446 35.446s15.754 35.446 35.446 35.446 35.446-15.754 35.446-35.446c0-19.691-15.753-35.446-35.446-35.446z" fill="#ccd0d2"/></svg>