<svg  data-name="Layer 4" xmlns="http://www.w3.org/2000/svg" viewBox="0 0 214.21 316.33"><title>upholstery</title><path class="chair" d="M75.61,49h31.5V0H75.61a10,10,0,0,0-10,10V39A10,10,0,0,0,75.61,49Z"/><path d="M11.47,234.55c0.51,0,1-.05,1.56-0.05H23.5c7.24,0,17.81,3.89,19.05,14.42a14.54,14.54,0,0,1,2-.13h0.2a16.44,16.44,0,0,1-.35-3.13s10.68-124,11-128.5a20.89,20.89,0,0,1,1.73-4.75c1.42-2.7,7.25-2,7.25-2h42.73V57.82H62.21S42.48,59.18,37,69.39,29.55,94.9,29.55,94.9s1.36,13.94,0,21.42S21.39,157.14,18.67,166s-8.16,47.62-7.48,55.78C11.44,224.77,11.49,229.62,11.47,234.55Z"/><path d="M107.11,118.4h-36s-8-.25-8.5,4.75-3.5,56.5-3.5,56.5,0.25,5,2.75,5.5,45.23,1,45.23,1V118.4Z"/><path d="M148.6,39V10a10,10,0,0,0-10-10h-31.5V49h31.5A10,10,0,0,0,148.6,39Z"/><path d="M213.91,255.1s0.3-13.61-12.73-13.61c-6.86,0-22.64,0-22.64,9.52v14.29s-2-9.52-8.84-9.52H44.52c-6.8,0-8.84,9.52-8.84,9.52V251c0-9.52-15.78-9.52-22.64-9.52C0,241.5.3,255.1,0.3,255.1s-0.68,34,0,47.62,16.33,13.61,16.33,13.61h181s15.65,0,16.33-13.61S213.91,255.1,213.91,255.1Z"/><path d="M157.09,112.4a20.89,20.89,0,0,1,1.73,4.75c0.34,4.45,11,128.5,11,128.5a16.44,16.44,0,0,1-.35,3.13h0.2a14.54,14.54,0,0,1,2,.13c1.25-10.53,11.81-14.42,19.05-14.42h10.47c0.54,0,1.06,0,1.56.05,0-4.93,0-9.78.28-12.78,0.68-8.16-4.76-46.94-7.48-55.78s-9.52-42.18-10.88-49.66,0-21.42,0-21.42-2-15.31-7.48-25.52S152,57.82,152,57.82h-44.9V110.4h42.73S155.67,109.71,157.09,112.4Z"/><path d="M155.09,179.65s-3-51.5-3.5-56.5-8.5-4.75-8.5-4.75h-36v67.75s42.73-.5,45.23-1S155.09,179.65,155.09,179.65Z"/><path d="M56.37,196.4c-0.75,4-6,52.51-6,52.51h56.73v-57H63.87S57.12,192.4,56.37,196.4Z"/><path d="M157.84,196.4c-0.75-4-7.5-4.5-7.5-4.5H107.11v57h56.73S158.59,200.4,157.84,196.4Z"/></svg>